<svg width="30" height="30" viewBox="0 0 30 30" fill="none" xmlns="http://www.w3.org/2000/svg">
<path d="M15 0C6.7 0 0 6.7 0 15C0 23.3 6.7 30 15 30C23.3 30 30 23.3 30 15C30 6.7 23.3 0 15 0Z" fill="white"/>
<path d="M15 0.7C7.1 0.7 0.7 7.1 0.7 15C0.7 22.9 7.1 29.3 15 29.3C22.9 29.3 29.3 22.9 29.3 15C29.3 7.1 22.9 0.7 15 0.7ZM12.7 24.2C12.7 24.8 12.1 25.3 11.5 25.3C10.9 25.3 10.4 24.7 10.4 24.1C10.4 23.2 11.7 22.4 12.7 21.9V24.2ZM10.1 20.2C10.1 19.3 11.4 18.5 12.4 18C12.4 18 12.4 20.4 12.4 20.3C12.4 20.9 11.9 21.4 11.3 21.4C10.6 21.4 10.1 20.8 10.1 20.2ZM15.7 24.2C15.7 24.8 15.1 25.3 14.5 25.3C13.9 25.3 13.4 24.7 13.4 24.1C13.4 23.2 14.7 22.4 15.7 21.9C15.7 21.9 15.7 24.3 15.7 24.2ZM13.1 20.2C13.1 19.3 14.4 18.5 15.4 18C15.4 18 15.4 20.4 15.4 20.3C15.4 20.9 14.8 21.4 14.2 21.4C13.6 21.4 13.1 20.8 13.1 20.2ZM18.4 20.3C18.4 20.9 17.9 21.4 17.3 21.4C16.6 21.4 16.1 20.8 16.1 20.2C16.1 19.3 17.4 18.5 18.4 18C18.4 18 18.4 20.4 18.4 20.3ZM23 16.7H7.3C5.9 16.4 4.9 15.2 5 13.9C5 10.9 8.3 10.8 8.3 10.8C8.3 10.8 7.9 6.3 12.2 5.6C16.9 5 17.4 8.4 17.4 8.4C18.8 7.8 20.4 7.8 21.7 8.6C23.6 9.9 22.9 12.6 22.9 12.6C23 12.6 23.2 12.6 23.3 12.6C24.4 12.7 25.3 13.7 25.2 14.8C25.1 15.9 24.1 16.8 23 16.7Z" fill="#E64011"/>
</svg>
